<svg width="129" height="31" viewBox="0 0 129 31" fill="none" xmlns="http://www.w3.org/2000/svg">
<path d="M3.598 22V10.1H9.174C10.602 10.1 11.69 10.3833 12.438 10.95C13.186 11.5053 13.56 12.2533 13.56 13.194C13.56 13.8287 13.4127 14.3727 13.118 14.826C12.8233 15.268 12.4267 15.6137 11.928 15.863C11.4407 16.101 10.908 16.22 10.33 16.22L10.636 15.608C11.3047 15.608 11.9053 15.7327 12.438 15.982C12.9707 16.22 13.39 16.5713 13.696 17.036C14.0133 17.5007 14.172 18.0787 14.172 18.77C14.172 19.79 13.781 20.5833 12.999 21.15C12.217 21.7167 11.0553 22 9.514 22H3.598ZM5.808 20.266H9.378C10.2053 20.266 10.84 20.13 11.282 19.858C11.724 19.586 11.945 19.1497 11.945 18.549C11.945 17.9597 11.724 17.529 11.282 17.257C10.84 16.9737 10.2053 16.832 9.378 16.832H5.638V15.115H8.936C9.70667 15.115 10.296 14.979 10.704 14.707C11.1233 14.435 11.333 14.027 11.333 13.483C11.333 12.9277 11.1233 12.514 10.704 12.242C10.296 11.97 9.70667 11.834 8.936 11.834H5.808V20.266ZM20.4066 22.119C19.4773 22.119 18.65 21.9207 17.9246 21.524C17.1993 21.116 16.627 20.5607 16.2076 19.858C15.7883 19.1553 15.5786 18.3563 15.5786 17.461C15.5786 16.5543 15.7883 15.7553 16.2076 15.064C16.627 14.3613 17.1993 13.8117 17.9246 13.415C18.65 13.0183 19.4773 12.82 20.4066 12.82C21.3473 12.82 22.1803 13.0183 22.9056 13.415C23.6423 13.8117 24.2146 14.3557 24.6226 15.047C25.042 15.7383 25.2516 16.543 25.2516 17.461C25.2516 18.3563 25.042 19.1553 24.6226 19.858C24.2146 20.5607 23.6423 21.116 22.9056 21.524C22.1803 21.9207 21.3473 22.119 20.4066 22.119ZM20.4066 20.3C20.928 20.3 21.3926 20.1867 21.8006 19.96C22.2086 19.7333 22.526 19.4047 22.7526 18.974C22.9906 18.5433 23.1096 18.039 23.1096 17.461C23.1096 16.8717 22.9906 16.3673 22.7526 15.948C22.526 15.5173 22.2086 15.1887 21.8006 14.962C21.3926 14.7353 20.9336 14.622 20.4236 14.622C19.9023 14.622 19.4376 14.7353 19.0296 14.962C18.633 15.1887 18.3156 15.5173 18.0776 15.948C17.8396 16.3673 17.7206 16.8717 17.7206 17.461C17.7206 18.039 17.8396 18.5433 18.0776 18.974C18.3156 19.4047 18.633 19.7333 19.0296 19.96C19.4376 20.1867 19.8966 20.3 20.4066 20.3ZM31.3636 22.119C30.4343 22.119 29.607 21.9207 28.8816 21.524C28.1563 21.116 27.584 20.5607 27.1646 19.858C26.7453 19.1553 26.5356 18.3563 26.5356 17.461C26.5356 16.5543 26.7453 15.7553 27.1646 15.064C27.584 14.3613 28.1563 13.8117 28.8816 13.415C29.607 13.0183 30.4343 12.82 31.3636 12.82C32.3043 12.82 33.1373 13.0183 33.8626 13.415C34.5993 13.8117 35.1716 14.3557 35.5796 15.047C35.999 15.7383 36.2086 16.543 36.2086 17.461C36.2086 18.3563 35.999 19.1553 35.5796 19.858C35.1716 20.5607 34.5993 21.116 33.8626 21.524C33.1373 21.9207 32.3043 22.119 31.3636 22.119ZM31.3636 20.3C31.885 20.3 32.3496 20.1867 32.7576 19.96C33.1656 19.7333 33.483 19.4047 33.7096 18.974C33.9476 18.5433 34.0666 18.039 34.0666 17.461C34.0666 16.8717 33.9476 16.3673 33.7096 15.948C33.483 15.5173 33.1656 15.1887 32.7576 14.962C32.3496 14.7353 31.8906 14.622 31.3806 14.622C30.8593 14.622 30.3946 14.7353 29.9866 14.962C29.59 15.1887 29.2726 15.5173 29.0346 15.948C28.7966 16.3673 28.6776 16.8717 28.6776 17.461C28.6776 18.039 28.7966 18.5433 29.0346 18.974C29.2726 19.4047 29.59 19.7333 29.9866 19.96C30.3946 20.1867 30.8536 20.3 31.3636 20.3ZM39.9747 19.977L40.0257 17.308L44.7687 12.922H47.3187L43.2897 16.968L42.1677 17.903L39.9747 19.977ZM38.2407 22V9.386H40.3657V22H38.2407ZM45.0917 22L41.7767 17.903L43.1197 16.203L47.6757 22H45.0917Z" fill="#1D1D1F"/>
<path fill-rule="evenodd" clip-rule="evenodd" d="M54 0C51.7909 0 50 1.79086 50 4V27C50 29.2091 51.7909 31 54 31H73C75.2091 31 77 29.2091 77 27V4C77 1.79086 75.2091 0 73 0H54ZM52.328 9.8V21H54.76V14.4225L58.04 19.816H59.208L62.5056 14.2777L62.52 21H64.952L64.92 9.8H62.792L58.6672 16.7544L54.472 9.8H52.328ZM67.1933 24.024C67.6306 24.1627 68.0732 24.232 68.5212 24.232C69.0439 24.232 69.5186 24.152 69.9452 23.992C70.3826 23.832 70.7773 23.5547 71.1292 23.16C71.4919 22.7653 71.8119 22.2213 72.0893 21.528L75.9772 12.392H73.5773L71.1456 18.238L68.7292 12.392H66.1532L69.8799 21.0719L69.8493 21.144C69.6786 21.528 69.4866 21.8 69.2733 21.96C69.0706 22.1307 68.7933 22.216 68.4412 22.216C68.1959 22.216 67.9452 22.168 67.6893 22.072C67.4439 21.976 67.2253 21.8427 67.0333 21.672L66.1213 23.448C66.3986 23.6933 66.7559 23.8853 67.1933 24.024Z" fill="#1D1D1F"/>
<path d="M88.962 10.1H91.172V22H88.962V10.1ZM82.808 22H80.598V10.1H82.808V22ZM89.132 16.9H82.621V15.013H89.132V16.9ZM98.2367 22.119C97.3074 22.119 96.48 21.9207 95.7547 21.524C95.0294 21.116 94.457 20.5607 94.0377 19.858C93.6184 19.1553 93.4087 18.3563 93.4087 17.461C93.4087 16.5543 93.6184 15.7553 94.0377 15.064C94.457 14.3613 95.0294 13.8117 95.7547 13.415C96.48 13.0183 97.3074 12.82 98.2367 12.82C99.1774 12.82 100.01 13.0183 100.736 13.415C101.472 13.8117 102.045 14.3557 102.453 15.047C102.872 15.7383 103.082 16.543 103.082 17.461C103.082 18.3563 102.872 19.1553 102.453 19.858C102.045 20.5607 101.472 21.116 100.736 21.524C100.01 21.9207 99.1774 22.119 98.2367 22.119ZM98.2367 20.3C98.758 20.3 99.2227 20.1867 99.6307 19.96C100.039 19.7333 100.356 19.4047 100.583 18.974C100.821 18.5433 100.94 18.039 100.94 17.461C100.94 16.8717 100.821 16.3673 100.583 15.948C100.356 15.5173 100.039 15.1887 99.6307 14.962C99.2227 14.7353 98.7637 14.622 98.2537 14.622C97.7324 14.622 97.2677 14.7353 96.8597 14.962C96.463 15.1887 96.1457 15.5173 95.9077 15.948C95.6697 16.3673 95.5507 16.8717 95.5507 17.461C95.5507 18.039 95.6697 18.5433 95.9077 18.974C96.1457 19.4047 96.463 19.7333 96.8597 19.96C97.2677 20.1867 97.7267 20.3 98.2367 20.3ZM108.531 22.119C107.533 22.119 106.763 21.864 106.219 21.354C105.675 20.8327 105.403 20.0677 105.403 19.059V10.916H107.528V19.008C107.528 19.4387 107.635 19.773 107.851 20.011C108.077 20.249 108.389 20.368 108.786 20.368C109.262 20.368 109.658 20.2433 109.976 19.994L110.571 21.507C110.321 21.711 110.015 21.864 109.653 21.966C109.29 22.068 108.916 22.119 108.531 22.119ZM103.907 14.69V12.99H109.959V14.69H103.907ZM116.287 22.119C115.278 22.119 114.394 21.9207 113.635 21.524C112.887 21.116 112.303 20.5607 111.884 19.858C111.476 19.1553 111.272 18.3563 111.272 17.461C111.272 16.5543 111.47 15.7553 111.867 15.064C112.275 14.3613 112.83 13.8117 113.533 13.415C114.247 13.0183 115.057 12.82 115.964 12.82C116.848 12.82 117.636 13.0127 118.327 13.398C119.018 13.7833 119.562 14.3273 119.959 15.03C120.356 15.7327 120.554 16.56 120.554 17.512C120.554 17.6027 120.548 17.7047 120.537 17.818C120.537 17.9313 120.531 18.039 120.52 18.141H112.955V16.73H119.398L118.565 17.172C118.576 16.6507 118.469 16.1917 118.242 15.795C118.015 15.3983 117.704 15.0867 117.307 14.86C116.922 14.6333 116.474 14.52 115.964 14.52C115.443 14.52 114.984 14.6333 114.587 14.86C114.202 15.0867 113.896 15.404 113.669 15.812C113.454 16.2087 113.346 16.679 113.346 17.223V17.563C113.346 18.107 113.471 18.5887 113.72 19.008C113.969 19.4273 114.321 19.7503 114.774 19.977C115.227 20.2037 115.749 20.317 116.338 20.317C116.848 20.317 117.307 20.2377 117.715 20.079C118.123 19.9203 118.486 19.671 118.803 19.331L119.942 20.64C119.534 21.116 119.018 21.4843 118.395 21.745C117.783 21.9943 117.08 22.119 116.287 22.119ZM122.595 22V9.386H124.72V22H122.595Z" fill="#1D1D1F"/>
</svg>
